<svg width="419" height="60" viewBox="0 0 419 60" fill="none" xmlns="http://www.w3.org/2000/svg">
<path d="M118.122 44.0188C118.122 37.0933 117.221 35.8467 107.803 33.3536C103.232 32.1762 103.024 31.9685 103.024 29.2675C103.024 27.1899 103.647 26.3588 107.318 26.3588C109.949 26.3588 114.036 26.8436 116.598 27.3284L117.429 20.6106C114.52 19.8488 110.434 19.4333 107.318 19.4333C97.6914 19.4333 94.7134 22.4113 94.7134 29.1983C94.7134 35.7082 95.683 37.7859 103.924 39.7943C109.395 41.1101 109.811 42.149 109.811 44.2266C109.811 46.789 109.257 47.6201 105.517 47.6201C102.054 47.6201 98.3146 46.9968 95.4752 46.1658L94.2979 52.6065C97.4143 53.7146 102.331 54.5456 105.933 54.5456C116.113 54.5456 118.122 50.5288 118.122 44.0188Z" fill="#221E1F"/>
<path d="M154.291 41.2486V32.7303C154.291 25.8048 151.175 19.4333 139.609 19.4333C128.043 19.4333 124.927 25.8048 124.927 32.7303V41.2486C124.927 48.1742 128.043 54.5456 139.609 54.5456C151.175 54.5456 154.291 48.1742 154.291 41.2486ZM145.842 32.4532V41.5257C145.842 45.3347 144.111 47.3431 139.609 47.3431C135.107 47.3431 133.376 45.3347 133.376 41.5257V32.4532C133.376 28.6442 135.107 26.6358 139.609 26.6358C144.111 26.6358 145.842 28.6442 145.842 32.4532Z" fill="#221E1F"/>
<path d="M182.723 5.92856C180.506 5.30526 178.082 4.95898 175.451 4.95898C167.971 4.95898 164.716 8.42174 164.716 15.4165V20.1258H159.314V26.8436H164.716V53.8531H173.165V26.8436H181.268L181.753 20.1258H173.165V15.9013C173.165 13.3388 173.65 11.8845 176.974 11.8845C178.359 11.8845 180.229 12.0923 181.822 12.4385L182.723 5.92856Z" fill="#221E1F"/>
<path d="M204.557 46.789C203.103 47.2046 201.579 47.4816 200.333 47.4816C198.117 47.4816 197.286 46.3043 197.286 44.5036V26.8436H205.388L205.942 20.1258H197.286V10.5686L188.836 11.746V20.1258H183.781V26.8436H188.836V45.6117C188.836 51.6369 191.953 54.5456 198.117 54.5456C200.264 54.5456 203.726 53.9916 205.527 53.2298L204.557 46.789Z" fill="#221E1F"/>
<path d="M220.657 53.8531V5.16675L212.208 6.34408V53.8531H220.657Z" fill="#221E1F"/>
<path d="M255.334 31.6222C255.334 23.1731 252.218 19.4333 241.622 19.4333C237.882 19.4333 233.242 20.0566 230.056 21.0262L231.095 27.4669C234.073 26.8436 237.397 26.4281 240.444 26.4281C245.846 26.4281 246.885 27.7439 246.885 31.4837V35.0157H238.782C231.926 35.0157 228.948 37.6474 228.948 44.5036C228.948 50.3211 231.58 54.5456 237.743 54.5456C241.137 54.5456 244.738 53.576 247.785 51.5676L248.409 53.8531H255.334V31.6222ZM246.885 46.0965C245.292 46.9968 243.007 47.8279 240.514 47.8279C237.882 47.8279 237.12 46.7891 237.12 44.4344C237.12 41.8719 237.882 41.1101 240.652 41.1101H246.885V46.0965Z" fill="#221E1F"/>
<path d="M292.747 53.8531V29.406C292.747 23.3808 290.738 19.4333 285.129 19.4333C281.181 19.4333 275.848 20.8877 271.624 22.9653L270.793 20.1258H264.352V53.8531H272.801V30.4449C275.848 28.852 279.519 27.6054 281.597 27.6054C283.536 27.6054 284.298 28.5057 284.298 30.3063V53.8531H292.747Z" fill="#221E1F"/>
<path d="M300.706 42.8415C300.706 50.5288 304.307 54.5456 311.094 54.5456C315.318 54.5456 318.781 53.1605 321.759 51.0136L322.59 53.8531H329.308V5.16675L320.859 6.34408V20.4029C318.227 19.8488 314.834 19.4333 311.856 19.4333C304.03 19.4333 300.706 23.8656 300.706 31.3452V42.8415ZM320.859 44.2959C319.058 45.958 316.08 47.3431 313.31 47.3431C310.193 47.3431 309.155 45.8195 309.155 43.0493V31.1374C309.155 28.0902 310.332 26.6358 313.379 26.6358C315.803 26.6358 318.643 27.0514 320.859 27.5361V44.2959Z" fill="#221E1F"/>
<path d="M355.985 46.789C354.531 47.2046 353.007 47.4816 351.761 47.4816C349.544 47.4816 348.713 46.3043 348.713 44.5036V26.8436H356.816L357.37 20.1258H348.713V10.5686L340.264 11.746V20.1258H335.209V26.8436H340.264V45.6117C340.264 51.6369 343.381 54.5456 349.544 54.5456C351.691 54.5456 355.154 53.9916 356.955 53.2298L355.985 46.789Z" fill="#221E1F"/>
<path d="M370.561 41.9412V40.2098H389.329V33.0073C389.329 25.7355 386.905 19.4333 376.102 19.4333C365.298 19.4333 362.112 25.4585 362.112 32.5918V41.5257C362.112 49.6285 365.783 54.5456 376.379 54.5456C380.395 54.5456 384.966 53.8531 388.775 52.3987L387.459 46.0272C383.789 47.1353 380.395 47.6201 377.14 47.6201C372.016 47.6201 370.561 46.0272 370.561 41.9412ZM370.561 31.7607C370.561 28.575 372.016 26.3588 376.171 26.3588C380.326 26.3588 381.296 28.575 381.296 31.7607V33.4228H370.561V31.7607Z" fill="#221E1F"/>
<path d="M409.998 54.5456C412.768 54.5456 416.023 54.0608 418.24 53.299L417.201 46.3735C414.777 46.9968 412.353 47.2738 410.206 47.2738C405.358 47.2738 403.904 45.8195 403.904 41.6642V32.3147C403.904 28.1594 405.358 26.7051 410.206 26.7051C411.868 26.7051 414.915 26.9821 417.201 27.6054L418.24 20.6799C415.746 19.8488 412.353 19.4333 409.998 19.4333C399.402 19.4333 395.455 23.3116 395.455 32.384V41.5949C395.455 50.6673 399.402 54.5456 409.998 54.5456Z" fill="#221E1F"/>
<path d="M8.26387 33.0579V7.85133L21.6523 0.248047H34.958L14.8754 11.653V23.1405V36.8595L8.26387 33.0579Z" fill="#EF233C"/>
<path d="M42.9746 47.3557L21.6524 59.7524H21.735L21.4044 60.0003L7.68545 52.0665L1.0739 40.5789L21.2391 52.3144L42.9746 39.7524V47.3557Z" fill="#EF233C"/>
<path d="M16.3635 39.9171H16.2808L28.1816 46.694L21.6527 50.4956L-9.74979e-05 37.851V21.9007L6.61145 10.4131V33.9667L16.3635 39.9171Z" fill="#EF233C"/>
<path d="M16.5284 12.5619L38.1812 0L51.9002 7.93386L58.5117 19.5041L38.0159 7.68593L28.0986 13.471H28.2639L16.5284 20.2479V12.5619Z" fill="#EF233C"/>
<path d="M37.8511 9.58691L59.5039 22.2315V38.0992L52.8924 49.5868V26.0331L43.1403 20.248L31.2395 13.3886L37.8511 9.58691Z" fill="#EF233C"/>
<path d="M51.2393 26.9418V52.1483L37.8509 59.7516H24.4625L44.6277 48.3467V36.8591V23.1401L51.2393 26.9418Z" fill="#EF233C"/>
</svg>
