<svg width="200" height="202" viewBox="0 0 200 202" fill="none" xmlns="http://www.w3.org/2000/svg">
<path d="M27.7778 111.111V26.3891L72.7778 0.833496H117.5L50 39.1668V77.778V123.889L27.7778 111.111Z" fill="#EF233C"/>
<path d="M144.444 159.167L72.7777 200.834H73.0554L71.9443 201.667L25.8332 175L3.61101 136.389L71.3888 175.834L144.444 133.611V159.167Z" fill="#EF233C"/>
<path d="M54.9999 134.167H54.7222L94.7222 156.944L72.7777 169.722L-5.34058e-05 127.222V73.6111L22.2222 35V114.167L54.9999 134.167Z" fill="#EF233C"/>
<path d="M55.5554 42.2222L128.333 0L174.444 26.6667L196.667 65.5555L127.778 25.8333L94.4443 45.2778H94.9998L55.5554 68.0555V42.2222Z" fill="#EF233C"/>
<path d="M127.222 32.2222L200 74.7222V128.055L177.778 166.667V87.4999L145 68.0555L105 44.9999L127.222 32.2222Z" fill="#EF233C"/>
<path d="M172.222 90.5556V175.278L127.222 200.833H82.2222L150 162.5V123.889V77.7778L172.222 90.5556Z" fill="#EF233C"/>
</svg>
